<?xml version="1.0" encoding="UTF-8" standalone="no"?>
<!-- Created with Inkscape (http://www.inkscape.org/) -->

<svg
   xmlns:dc="http://purl.org/dc/elements/1.1/"
   xmlns:cc="http://creativecommons.org/ns#"
   xmlns:rdf="http://www.w3.org/1999/02/22-rdf-syntax-ns#"
   xmlns:svg="http://www.w3.org/2000/svg"
   xmlns="http://www.w3.org/2000/svg"
   version="1.1"
   width="744.09448"
   height="1052.3622"
   id="svg3126">
  <defs
     id="defs3128" />
  <metadata
     id="metadata3131">
    <rdf:RDF>
      <cc:Work
         rdf:about="">
        <dc:format>image/svg+xml</dc:format>
        <dc:type
           rdf:resource="http://purl.org/dc/dcmitype/StillImage" />
        <dc:title></dc:title>
      </cc:Work>
    </rdf:RDF>
  </metadata>
  <g
     id="layer1">
    <g
       id="g3218">
      <g
         transform="translate(20,94.285714)"
         id="g3138">
        <path
         d="m 319.99999,520.9336 -84.7161,3.87545 -45.71428,-71.42856 39.00181,-75.30402 84.7161,-3.87545 45.71428,71.42857 z"
         transform="matrix(0.92010425,0.39167355,-0.39167355,0.92010425,217.9735,22.7688)"
         id="path3142"
         style="fill:#00ff00;fill-opacity:1;stroke:#000000;stroke-width:0.1;stroke-linecap:round;stroke-linejoin:round;stroke-miterlimit:4;stroke-dasharray:none" />
      <path
         d="m 608.57145,212.36218 -80.43039,-3.54762 -37.14286,-71.42858 43.28753,-67.880944 80.43039,3.547625 37.14286,71.428569 z"
         transform="matrix(0.94475375,0.32778097,-0.32778097,0.94475375,97.764648,-85.231653)"
         id="path3150"
         style="fill:#0000ff;fill-opacity:1;stroke:#000000;stroke-width:0.1;stroke-linecap:round;stroke-linejoin:round;stroke-miterlimit:4;stroke-dasharray:none" />
        <path
           d="m 148.57144,389.50503 -27.33425,-57.60441 -63.171225,8.6502 36.219764,-52.47436 -39.076906,-50.38279 63.554007,5.13006 24.09432,-59.03299 27.33425,57.60442 63.17122,-8.6502 -36.21976,52.47436 39.07691,50.38278 -63.55402,-5.13005 z"
           id="path3134"
           style="fill:#aa4400;fill-opacity:1;stroke:#000000;stroke-width:0.1;stroke-linecap:round;stroke-linejoin:round;stroke-miterlimit:4;stroke-dasharray:none" />
        <path
           d="m 360.00001,346.6479 -22.99725,-65.32145 -69.21701,2.18409 45.07141,-52.57692 -36.49998,-58.85165 68.06866,12.74452 32.71703,-61.03574 22.99725,65.32146 69.21701,-2.18409 -45.07141,52.57692 36.49999,58.85165 -68.06867,-12.74452 z"
           id="path3136"
           style="fill:#ff0000;fill-opacity:1;stroke:#000000;stroke-width:0.1;stroke-linecap:round;stroke-linejoin:round;stroke-miterlimit:4;stroke-dasharray:none" />
      </g>
      
    </g>
  </g>
</svg>
